<?xml version="1.0" encoding="utf-8"?>
<!-- Generator: Adobe Illustrator 15.0.0, SVG Export Plug-In . SVG Version: 6.00 Build 0)  -->
<!DOCTYPE svg PUBLIC "-//W3C//DTD SVG 1.1//EN" "http://www.w3.org/Graphics/SVG/1.1/DTD/svg11.dtd">
<svg version="1.1" id="Calque_1" xmlns="http://www.w3.org/2000/svg" xmlns:xlink="http://www.w3.org/1999/xlink" x="0px" y="0px"
	 width="3200px" height="500px" viewBox="0 0 3200 500" enable-background="new 0 0 3200 500" xml:space="preserve">
<rect x="0.5" y="0.5" fill="none" stroke="#000000" stroke-miterlimit="10" width="800" height="500"/>
<g id="XMLID_2_">
	<g>
		<path fill="#8EBF22" stroke="#1D1D1B" stroke-miterlimit="10" d="M13.716,503.006c24.972-24.38,45.291-54.143,55.113-73.557
			c23.745-45.9,20.126-103.102,52.538-147.415c32.487-45.608,87.304-54.142,151.923-50.671
			c87.347,4.234,131.794,52.43,161.716,109.217c22.023,42.252,18.263,105.691,52.834,143.176
			c8.336,9.218,21.059,14.485,35.547,17.45"/>
	</g>
</g>
<g>
	
		<rect x="259.241" y="170.37" transform="matrix(-0.7071 0.7071 -0.7071 -0.7071 629.2805 134.2686)" fill="#600606" stroke="#000000" stroke-miterlimit="10" width="55.182" height="54.182"/>
	<rect x="248.168" y="197.107" fill="#0099BF" stroke="#000000" stroke-miterlimit="10" width="77.333" height="69.334"/>
	<rect x="277.501" y="243.107" stroke="#000000" stroke-miterlimit="10" width="18.667" height="23.334"/>
	<circle fill="#FFEE00" stroke="#1D1D1B" stroke-miterlimit="10" cx="286.834" cy="217.774" r="7.5"/>
</g>
<g>
	<path fill="#4D0F0F" stroke="#1D1D1B" stroke-miterlimit="10" d="M150.854,281.299c0.486-1.456,0.78-2.943,0.944-4.443
		c2.826-9.928,2.517-19.849,0.324-29.772c-0.521-7.415-1.728-14.859-4.2-21.842c-3.377-9.538-8.478-19.122-19.22-21.26
		c-4.63-0.92-8.727-2.332-13.178-3.844c-4.142-1.407-8.206-2.374-12.364-0.923c-0.422-0.305-0.805-0.652-1.127-1.063
		c0.571-1.464,0.21-3.271-0.833-4.446c2.95,0.821,5.67,2.166,8.576,3.074c3.027,0.947,6.16,1.355,9.254,2.021
		c1.039,0.223,2.107,0.459,3.194,0.687c0.405,0.161,0.815,0.312,1.237,0.447c0.9,0.288,1.851,0.343,2.798,0.308
		c1.536,0.242,3.078,0.402,4.6,0.453c6.216,0.886,13.127,2.772,17.555-2.883c0.333-0.426,0.551-0.852,0.678-1.268
		c1.189-1.373,2.28-2.844,3.135-4.41c0.688-1.257,1.328-2.541,1.623-3.95c0.116-0.553,0.183-1.111,0.256-1.668
		c0.769-2.288,0.92-4.666,1.236-7.118l3.026-0.762c-1.907,3.302-2.317,7.329-2.229,11.083c0.044,1.833,0.073,3.79,0.442,5.634
		c0.037,1.587,0.357,3.09,1.092,4.356c2.84,4.89,7.261,4.83,11.836,2.349c6.868-3.725,15.221-11.55,17.469-19.493
		c1.532,0.412,3.283,0.027,4.267-1.188c-0.002,0.065,0.002,0.135-0.001,0.201c-0.207,0.243-0.398,0.521-0.564,0.85
		c-4.319,8.519-8.59,16.572-16.474,22.341c-0.475,0.347-0.839,0.749-1.11,1.181c-0.873,0.734-1.469,1.8-1.469,2.959
		c0.001,0.447,0.013,0.89,0.026,1.334c-0.007,0.032-0.016,0.062-0.021,0.095c-1.24,7.242-2.443,14.736-1.287,22.067
		c-0.198,1.941-0.288,3.885-0.081,5.801c0.392,3.622,1.386,6.815,2.661,9.885c-1.117,3.802,0.564,8.345,2.551,12.009
		c0.879,1.619,1.865,3.131,2.993,4.535c-0.015,0.26-0.014,0.521,0.02,0.783c0.61,4.816,3.368,8.41,6.546,11.879
		c2.32,2.532,4.859,3.648,8.032,3.387c1.868,1.713,4.097,2.502,6.808,2.414c2.884-0.095,6.887-2.246,9.69-1.317
		c2.936,0.971,4.572,2.021,7.745,1.216c0.214,0.07,0.431,0.13,0.646,0.202c0.016,0.006,0.034,0.008,0.05,0.012l-7.437,1.875
		c-0.106-0.006-0.211-0.021-0.319-0.022c-2.151-0.064-4.256,0.22-6.364,0.648c-2.223,0.453-4.217,0.247-6.439,0.378
		c-0.419,0.024-0.803,0.104-1.155,0.226c-0.674-0.236-1.464-0.267-2.362,0.035c-9.77,3.289-20.263,2.396-30.066,5.407
		c-9.039,2.776-18.975,4.951-27.355,9.433c-2.239,1.197-4.208,2.518-5.976,4.068l-1.99,0.501c6.78-4.379,12.99-10.594,17.512-17.184
		C148.133,286.512,149.89,284.182,150.854,281.299z"/>
	<g>
		<circle fill="#C3B5DA" stroke="#1D1D1B" stroke-miterlimit="10" cx="96" cy="194.778" r="4"/>
		<circle fill="#C3B5DA" stroke="#1D1D1B" stroke-miterlimit="10" cx="100.8" cy="189.979" r="4"/>
		<circle fill="#C3B5DA" stroke="#1D1D1B" stroke-miterlimit="10" cx="106.4" cy="192.378" r="4"/>
		<circle fill="#C3B5DA" stroke="#1D1D1B" stroke-miterlimit="10" cx="106.4" cy="197.979" r="4"/>
		<circle fill="#C3B5DA" stroke="#1D1D1B" stroke-miterlimit="10" cx="100.801" cy="199.593" r="4"/>
		<circle fill="#FFEC00" stroke="#1D1D1B" stroke-miterlimit="10" cx="101.6" cy="194.778" r="4"/>
	</g>
	<g>
		<circle fill="#C3B5DA" stroke="#1D1D1B" stroke-miterlimit="10" cx="152.017" cy="177.904" r="4"/>
		<circle fill="#C3B5DA" stroke="#1D1D1B" stroke-miterlimit="10" cx="157.438" cy="173.819" r="4"/>
		<circle fill="#C3B5DA" stroke="#1D1D1B" stroke-miterlimit="10" cx="162.65" cy="176.975" r="4"/>
		<circle fill="#C3B5DA" stroke="#1D1D1B" stroke-miterlimit="10" cx="161.871" cy="182.52" r="4"/>
		<circle fill="#C3B5DA" stroke="#1D1D1B" stroke-miterlimit="10" cx="156.101" cy="183.34" r="4"/>
		<circle fill="#FFEC00" stroke="#1D1D1B" stroke-miterlimit="10" cx="157.563" cy="178.683" r="4"/>
	</g>
	<g>
		<circle fill="#C3B5DA" stroke="#1D1D1B" stroke-miterlimit="10" cx="187.046" cy="176.171" r="4"/>
		<circle fill="#C3B5DA" stroke="#1D1D1B" stroke-miterlimit="10" cx="193.795" cy="176.902" r="4"/>
		<circle fill="#C3B5DA" stroke="#1D1D1B" stroke-miterlimit="10" cx="195.436" cy="182.77" r="4"/>
		<circle fill="#C3B5DA" stroke="#1D1D1B" stroke-miterlimit="10" cx="191.073" cy="186.281" r="4"/>
		<circle fill="#C3B5DA" stroke="#1D1D1B" stroke-miterlimit="10" cx="186.304" cy="182.929" r="4"/>
		<circle fill="#FFEC00" stroke="#1D1D1B" stroke-miterlimit="10" cx="190.556" cy="180.534" r="4"/>
	</g>
</g>
<rect x="800.5" y="0.477" fill="none" stroke="#000000" stroke-miterlimit="10" width="800" height="500"/>
<g id="XMLID_5_">
	<g>
		<path fill="#35A936" stroke="#1D1D1B" stroke-miterlimit="10" d="M813.664,502.428c24.972-24.38,45.291-54.143,55.114-73.557
			c23.745-45.9,20.126-103.102,52.538-147.415c32.486-45.608,87.304-54.142,151.923-50.671
			c87.347,4.233,131.794,52.43,161.716,109.217c22.023,42.252,18.263,105.692,52.834,143.176
			c8.336,9.218,21.058,14.485,35.547,17.45"/>
	</g>
</g>
<g>
	
		<rect x="1059.238" y="173.359" transform="matrix(-0.7071 0.7071 -0.7071 -0.7071 1997.0774 -426.3099)" fill="#600606" stroke="#000000" stroke-miterlimit="10" width="55.183" height="54.182"/>
	<rect x="1048.168" y="200.084" fill="#0099BF" stroke="#000000" stroke-miterlimit="10" width="77.333" height="69.333"/>
	<rect x="1077.501" y="246.084" stroke="#000000" stroke-miterlimit="10" width="18.667" height="23.333"/>
	<circle fill="#FFEE00" stroke="#1D1D1B" stroke-miterlimit="10" cx="1086.834" cy="220.751" r="7.5"/>
</g>
<g>
	<path fill="#4D0F0F" stroke="#1D1D1B" stroke-miterlimit="10" d="M950.854,282.275c0.486-1.457,0.78-2.942,0.944-4.442
		c2.826-9.931,2.518-19.851,0.324-29.774c-0.521-7.415-1.729-14.857-4.2-21.843c-3.377-9.537-8.478-19.122-19.22-21.26
		c-4.63-0.92-8.728-2.332-13.178-3.844c-4.143-1.407-8.206-2.374-12.364-0.923c-0.422-0.305-0.805-0.652-1.127-1.063
		c0.57-1.464,0.21-3.271-0.833-4.446c2.95,0.821,5.67,2.166,8.576,3.074c3.026,0.947,6.159,1.356,9.254,2.021
		c1.039,0.223,2.106,0.459,3.193,0.687c0.405,0.161,0.815,0.312,1.237,0.447c0.9,0.288,1.851,0.343,2.798,0.308
		c1.536,0.242,3.078,0.402,4.601,0.453c6.216,0.886,13.127,2.772,17.555-2.883c0.333-0.426,0.551-0.852,0.678-1.268
		c1.189-1.373,2.28-2.844,3.135-4.41c0.688-1.257,1.328-2.541,1.623-3.95c0.116-0.553,0.184-1.111,0.256-1.668
		c0.77-2.288,0.92-4.666,1.236-7.118l3.026-0.762c-1.907,3.302-2.317,7.329-2.229,11.083c0.044,1.833,0.073,3.79,0.442,5.634
		c0.037,1.587,0.356,3.09,1.092,4.356c2.84,4.89,7.261,4.83,11.836,2.349c6.868-3.725,15.221-11.55,17.469-19.493
		c1.532,0.412,3.283,0.027,4.268-1.188c-0.002,0.065,0.002,0.135-0.001,0.201c-0.207,0.243-0.398,0.521-0.564,0.85
		c-4.318,8.519-8.59,16.572-16.474,22.341c-0.476,0.347-0.839,0.749-1.11,1.181c-0.873,0.734-1.469,1.8-1.469,2.959
		c0.001,0.447,0.013,0.89,0.026,1.334c-0.008,0.032-0.017,0.063-0.021,0.095c-1.24,7.242-2.443,14.735-1.287,22.067
		c-0.198,1.94-0.288,3.885-0.081,5.801c0.393,3.621,1.387,6.815,2.661,9.885c-1.117,3.801,0.564,8.346,2.551,12.008
		c0.88,1.621,1.865,3.131,2.993,4.535c-0.015,0.261-0.014,0.521,0.021,0.783c0.609,4.817,3.368,8.41,6.546,11.879
		c2.32,2.533,4.858,3.649,8.032,3.389c1.867,1.711,4.097,2.5,6.808,2.412c2.884-0.094,6.887-2.246,9.689-1.317
		c2.937,0.972,4.572,2.022,7.745,1.216c0.214,0.07,0.432,0.131,0.646,0.203c0.016,0.006,0.034,0.006,0.05,0.012l-7.437,1.875
		c-0.106-0.006-0.212-0.021-0.319-0.023c-2.151-0.064-4.256,0.22-6.364,0.648c-2.223,0.453-4.217,0.248-6.438,0.379
		c-0.419,0.023-0.804,0.104-1.155,0.225c-0.674-0.236-1.464-0.268-2.362,0.036c-9.77,3.289-20.263,2.396-30.065,5.405
		c-9.039,2.777-18.976,4.953-27.355,9.435c-2.239,1.197-4.208,2.517-5.976,4.067l-1.99,0.502c6.78-4.379,12.99-10.594,17.512-17.186
		C948.133,287.488,949.89,285.159,950.854,282.275z"/>
	
		<ellipse transform="matrix(-0.1211 -0.9926 0.9926 -0.1211 811.5778 1104.5692)" fill="#75B62A" stroke="#1D1D1B" stroke-miterlimit="10" cx="894.794" cy="192.99" rx="11.665" ry="27.333"/>
	
		<ellipse transform="matrix(-0.1211 -0.9926 0.9926 -0.1211 943.9171 1195.7529)" fill="#75B62A" stroke="#1D1D1B" stroke-miterlimit="10" cx="1001.333" cy="179.992" rx="11.666" ry="27.332"/>
	
		<ellipse transform="matrix(-0.1211 -0.9926 0.9926 -0.1211 888.8846 1136.6241)" fill="#75B62A" stroke="#1D1D1B" stroke-miterlimit="10" cx="947.644" cy="174.789" rx="11.666" ry="27.332"/>
</g>
<rect x="1600" y="0.453" fill="none" stroke="#000000" stroke-miterlimit="10" width="800" height="500"/>
<g id="XMLID_6_">
	<g>
		<path fill="#6F7703" stroke="#1D1D1B" stroke-miterlimit="10" d="M1613.113,502.853c24.972-24.38,45.29-54.144,55.113-73.557
			c23.743-45.901,20.125-103.103,52.536-147.416c32.487-45.608,87.305-54.142,151.925-50.671
			c87.347,4.234,131.793,52.432,161.716,109.218c22.022,42.253,18.264,105.691,52.834,143.175
			c8.337,9.22,21.058,14.485,35.547,17.45"/>
	</g>
</g>
<g>
	
		<rect x="1858.721" y="177.326" transform="matrix(-0.7071 0.7071 -0.7071 -0.7071 3364.6897 -984.8539)" fill="#600606" stroke="#000000" stroke-miterlimit="10" width="55.183" height="54.182"/>
	<rect x="1847.668" y="204.061" fill="#0099BF" stroke="#000000" stroke-miterlimit="10" width="77.334" height="69.333"/>
	<rect x="1877.002" y="250.061" stroke="#000000" stroke-miterlimit="10" width="18.666" height="23.334"/>
	<circle fill="#FFEE00" stroke="#1D1D1B" stroke-miterlimit="10" cx="1886.334" cy="224.728" r="7.5"/>
</g>
<g>
	<path fill="#4D0F0F" stroke="#1D1D1B" stroke-miterlimit="10" d="M1750.354,286.252c0.486-1.456,0.781-2.943,0.945-4.443
		c2.826-9.928,2.516-19.849,0.323-29.772c-0.521-7.415-1.729-14.859-4.2-21.842c-3.377-9.538-8.478-19.122-19.22-21.26
		c-4.63-0.92-8.728-2.332-13.178-3.844c-4.143-1.407-8.206-2.374-12.364-0.923c-0.422-0.305-0.805-0.652-1.127-1.063
		c0.571-1.464,0.211-3.271-0.833-4.446c2.95,0.821,5.67,2.166,8.576,3.074c3.025,0.947,6.16,1.356,9.254,2.021
		c1.038,0.223,2.106,0.459,3.194,0.687c0.403,0.161,0.813,0.312,1.235,0.447c0.9,0.288,1.853,0.343,2.798,0.308
		c1.536,0.242,3.077,0.402,4.601,0.453c6.216,0.886,13.127,2.772,17.555-2.883c0.333-0.426,0.551-0.852,0.678-1.268
		c1.188-1.373,2.28-2.844,3.136-4.41c0.688-1.257,1.327-2.541,1.623-3.95c0.115-0.553,0.183-1.111,0.256-1.668
		c0.769-2.288,0.92-4.666,1.235-7.118l3.026-0.762c-1.908,3.302-2.318,7.329-2.229,11.083c0.044,1.833,0.073,3.79,0.442,5.634
		c0.037,1.587,0.357,3.09,1.092,4.356c2.84,4.89,7.262,4.83,11.836,2.349c6.868-3.725,15.222-11.55,17.47-19.493
		c1.531,0.412,3.282,0.027,4.268-1.188c-0.002,0.065,0.002,0.135-0.002,0.201c-0.207,0.243-0.397,0.521-0.563,0.85
		c-4.318,8.519-8.591,16.572-16.475,22.341c-0.476,0.347-0.839,0.749-1.109,1.181c-0.873,0.734-1.47,1.8-1.47,2.959
		c0,0.447,0.013,0.89,0.025,1.334c-0.007,0.032-0.017,0.062-0.021,0.095c-1.238,7.242-2.442,14.736-1.286,22.067
		c-0.197,1.941-0.287,3.885-0.08,5.801c0.392,3.622,1.386,6.815,2.66,9.885c-1.115,3.802,0.564,8.345,2.552,12.009
		c0.88,1.619,1.863,3.131,2.993,4.535c-0.017,0.26-0.016,0.52,0.02,0.783c0.609,4.816,3.367,8.41,6.545,11.879
		c2.32,2.532,4.859,3.648,8.032,3.387c1.868,1.713,4.097,2.502,6.808,2.414c2.885-0.095,6.887-2.246,9.69-1.318
		c2.936,0.972,4.571,2.021,7.745,1.217c0.213,0.07,0.431,0.13,0.645,0.201c0.018,0.007,0.035,0.009,0.051,0.013l-7.438,1.875
		c-0.105-0.006-0.211-0.021-0.318-0.022c-2.15-0.064-4.256,0.219-6.363,0.648c-2.224,0.453-4.219,0.247-6.439,0.378
		c-0.419,0.024-0.803,0.104-1.155,0.226c-0.674-0.236-1.464-0.267-2.362,0.035c-9.77,3.289-20.263,2.396-30.065,5.407
		c-9.038,2.776-18.976,4.951-27.354,9.433c-2.238,1.197-4.209,2.518-5.977,4.068l-1.989,0.501
		c6.78-4.379,12.989-10.594,17.512-17.184C1747.633,291.465,1749.391,289.135,1750.354,286.252z"/>
	
		<ellipse transform="matrix(-0.832 -0.5548 0.5548 -0.832 2980.5742 1543.8212)" fill="#7F5F2E" stroke="#1D1D1B" stroke-miterlimit="10" cx="1724.042" cy="320.612" rx="11.667" ry="27.333"/>
	
		<ellipse transform="matrix(0.6297 -0.7768 0.7768 0.6297 459.0265 1524.056)" fill="#7F5F2E" stroke="#1D1D1B" stroke-miterlimit="10" cx="1828.115" cy="280.549" rx="11.666" ry="27.335"/>
	
		<ellipse transform="matrix(-0.1211 -0.9926 0.9926 -0.1211 1692.6239 2105.2092)" fill="#7F5F2E" stroke="#1D1D1B" stroke-miterlimit="10" cx="1778.327" cy="303.249" rx="11.667" ry="27.331"/>
</g>
<rect x="2399.681" y="0.43" fill="none" stroke="#000000" stroke-miterlimit="10" width="800" height="500"/>
<g id="XMLID_7_">
	<g>
		<path fill="#CEE5F2" stroke="#1D1D1B" stroke-miterlimit="10" d="M2412.742,502.275c24.972-24.381,45.29-54.144,55.113-73.558
			c23.743-45.899,20.125-103.101,52.537-147.415c32.486-45.608,87.304-54.142,151.924-50.671
			c87.347,4.234,131.794,52.431,161.716,109.218c22.022,42.252,18.264,105.691,52.834,143.176
			c8.337,9.218,21.058,14.484,35.547,17.449"/>
	</g>
</g>
<g>
	
		<rect x="2658.394" y="180.303" transform="matrix(-0.7071 0.7071 -0.7071 -0.7071 4731.9131 -1545.2335)" fill="#CEE5F2" stroke="#1D1D1B" stroke-miterlimit="10" width="55.182" height="54.183"/>
	<rect x="2647.35" y="207.037" fill="#0099BF" stroke="#000000" stroke-miterlimit="10" width="77.334" height="69.334"/>
	<rect x="2676.684" y="253.037" stroke="#000000" stroke-miterlimit="10" width="18.666" height="23.334"/>
	<circle fill="#FFEE00" stroke="#1D1D1B" stroke-miterlimit="10" cx="2686.015" cy="227.704" r="7.5"/>
</g>
<g>
	<path fill="#4D0F0F" stroke="#1D1D1B" stroke-miterlimit="10" d="M2550.034,289.229c0.485-1.455,0.78-2.942,0.944-4.442
		c2.826-9.929,2.517-19.849,0.323-29.772c-0.521-7.416-1.728-14.859-4.2-21.843c-3.377-9.538-8.478-19.122-19.22-21.26
		c-4.63-0.92-8.727-2.332-13.178-3.844c-4.142-1.407-8.206-2.374-12.364-0.923c-0.422-0.305-0.805-0.652-1.127-1.063
		c0.571-1.464,0.211-3.271-0.833-4.446c2.95,0.821,5.67,2.166,8.576,3.074c3.026,0.947,6.16,1.356,9.254,2.021
		c1.038,0.223,2.106,0.459,3.194,0.687c0.404,0.161,0.813,0.312,1.236,0.447c0.899,0.288,1.852,0.343,2.798,0.308
		c1.536,0.242,3.077,0.402,4.6,0.453c6.216,0.886,13.127,2.772,17.556-2.883c0.332-0.426,0.551-0.852,0.678-1.268
		c1.188-1.373,2.279-2.844,3.135-4.41c0.688-1.257,1.328-2.541,1.623-3.95c0.116-0.553,0.184-1.111,0.256-1.668
		c0.77-2.288,0.92-4.666,1.236-7.118l3.025-0.762c-1.907,3.302-2.317,7.329-2.229,11.083c0.044,1.833,0.073,3.79,0.441,5.634
		c0.037,1.587,0.357,3.09,1.093,4.356c2.84,4.89,7.262,4.83,11.836,2.349c6.868-3.725,15.221-11.55,17.469-19.493
		c1.532,0.412,3.283,0.027,4.269-1.188c-0.002,0.065,0.002,0.135-0.002,0.201c-0.207,0.243-0.398,0.521-0.564,0.85
		c-4.318,8.519-8.59,16.572-16.475,22.341c-0.476,0.347-0.839,0.749-1.109,1.181c-0.873,0.734-1.469,1.8-1.469,2.959
		c0,0.447,0.012,0.89,0.024,1.334c-0.007,0.032-0.017,0.062-0.021,0.095c-1.239,7.242-2.443,14.736-1.286,22.067
		c-0.198,1.941-0.288,3.885-0.081,5.801c0.392,3.622,1.386,6.816,2.66,9.885c-1.115,3.801,0.564,8.345,2.552,12.008
		c0.88,1.619,1.864,3.132,2.993,4.535c-0.017,0.261-0.016,0.521,0.02,0.783c0.609,4.816,3.367,8.41,6.545,11.879
		c2.32,2.533,4.859,3.648,8.032,3.388c1.868,1.713,4.097,2.501,6.808,2.413c2.885-0.094,6.887-2.245,9.69-1.317
		c2.936,0.972,4.571,2.021,7.745,1.216c0.213,0.07,0.431,0.131,0.645,0.202c0.018,0.007,0.035,0.009,0.051,0.013l-7.438,1.875
		c-0.105-0.007-0.211-0.021-0.318-0.023c-2.15-0.064-4.256,0.22-6.363,0.648c-2.224,0.453-4.219,0.248-6.439,0.379
		c-0.419,0.024-0.803,0.104-1.155,0.225c-0.674-0.236-1.464-0.266-2.362,0.036c-9.77,3.288-20.263,2.396-30.065,5.407
		c-9.038,2.775-18.976,4.951-27.354,9.432c-2.238,1.197-4.209,2.518-5.977,4.068l-1.989,0.502
		c6.78-4.379,12.989-10.594,17.513-17.185C2547.313,294.441,2549.071,292.111,2550.034,289.229z"/>
</g>
<g>
	<ellipse fill="#FFFFFF" stroke="#1D1D1B" stroke-miterlimit="10" cx="2638.75" cy="410.276" rx="21.25" ry="21"/>
	<g>
		<path fill="none" stroke="#1D1D1B" stroke-miterlimit="10" d="M2661.5,368.4c2.294,0.832,4.205-3.277,4.727-4.971
			c0.923-3.007,0.857-5.109,3.062-7.646c2.119-2.441,5.06-3.315,7.5-5.416c1.972-1.695,3.178-3.797,3.963-6.217"/>
		<path fill="none" stroke="#1D1D1B" stroke-miterlimit="10" d="M2677.125,343.525c0,2.453-0.012,4.912,0.001,7.36
			c1.465,0.06,3.683-1.7,4.755-2.616c0.439-0.377,0.82-0.937,1.376-1.146c1.011-0.381,1.448,0.38,2.493,1.027"/>
	</g>
	<ellipse fill="#FFFFFF" stroke="#1D1D1B" stroke-miterlimit="10" cx="2647.5" cy="372.025" rx="19" ry="17.25"/>
	<ellipse fill="#FFFFFF" stroke="#1D1D1B" stroke-miterlimit="10" cx="2652.625" cy="339.025" rx="13.875" ry="15.75"/>
	<ellipse fill="#1D1D1B" stroke="#1D1D1B" stroke-miterlimit="10" cx="2646.979" cy="332.067" rx="1.563" ry="1.708"/>
	<ellipse fill="#1D1D1B" stroke="#1D1D1B" stroke-miterlimit="10" cx="2659.958" cy="333.256" rx="1.75" ry="2.021"/>
	<ellipse fill="#1D1D1B" stroke="#1D1D1B" stroke-miterlimit="10" cx="2646.979" cy="345.275" rx="1.125" ry="0.75"/>
	<ellipse fill="#FFFFFF" stroke="#1D1D1B" stroke-miterlimit="10" cx="2650.813" cy="348.151" rx="0.813" ry="1.063"/>
	<ellipse fill="#1D1D1B" stroke="#1D1D1B" stroke-miterlimit="10" cx="2655.738" cy="348.571" rx="1.113" ry="0.874"/>
	<ellipse fill="#1D1D1B" stroke="#1D1D1B" stroke-miterlimit="10" cx="2659.146" cy="348.62" rx="0.691" ry="0.838"/>
	<ellipse fill="#1D1D1B" stroke="#1D1D1B" stroke-miterlimit="10" cx="2661.979" cy="347.089" rx="0.651" ry="1.016"/>
	<g>
		<path fill="none" stroke="#1D1D1B" stroke-miterlimit="10" d="M2634.25,364.4c-2.393-1.102-5.236-1.84-5.909-4.596
			c-0.733-3.009-0.08-5.806-0.091-8.906c-0.02-5.381-3-9.496-3-14.873"/>
		<path fill="none" stroke="#1D1D1B" stroke-miterlimit="10" d="M2622.125,337.775c-0.295,0.884,1.648,3.359,2.375,4.004
			c0.796,0.705,1.691,1.191,2.509,1.844c0.537-2.303,1.414-4.709,1.866-6.973"/>
	</g>
	<path fill="#F4962A" stroke="#1D1D1B" stroke-miterlimit="10" d="M2651.188,339.934c0.354-0.343,0.156-1.508,0.156-1.971
		c0-0.454,0.005-0.855,0.104-1.287c0.091-0.404,0.25-0.71,0.753-0.583c0.35,0.089,0.727,0.372,1.056,0.528
		c0.366,0.173,0.708,0.377,1.059,0.592c1.161,0.711,2.475,1.26,3.76,1.711c0.852,0.299,1.837,0.446,2.738,0.446
		c0.67,0,1.332-0.017,1.994-0.056c0.602-0.035,1.164-0.193,1.775-0.109c0.139,0.02,0.274,0.061,0.414,0.076
		c0.038,0.674-0.262,1.283-0.878,1.588c-1.884,0.93-4.287,0.563-6.333,0.563c-1.501,0-3.123,0.282-4.477-0.438
		c-0.611-0.327-1.631-0.505-2.09-1.03"/>
</g>
</svg>
