<svg version="1.1" xmlns="http://www.w3.org/2000/svg" xmlns:xlink="http://www.w3.org/1999/xlink" xml:space="preserve" style="fill-rule:evenodd;clip-rule:evenodd;stroke-linejoin:round;stroke-miterlimit:1.41421;">
  <g id="corps">
    <g id="cou">
      <rect x="65" y="-0.6" width="88" height="145" style="fill:rgb(224,168,118);"/>
    </g>
    <g id="torse">
      <path d="M217.757,100.331L218.007,100.331L218.007,564.816L-0.467448,564.816L-0.467448,100.331L0.114931,100.331C0.12037,100.628 0.0898438,100.031 0.0898438,99.4317C0.0898438,75.485 48.822,56.0723 108.936,56.0723C169.05,56.0723 217.783,75.485 217.783,99.4317C217.783,100.031 217.752,100.628 217.757,100.331Z" style="fill:rgb(224,168,118);"/>
      <clipPath id="tag1">
        <path d="M217.757,100.331L218.007,100.331L218.007,564.816L-0.467448,564.816L-0.467448,100.331L0.114931,100.331C0.12037,100.628 0.0898438,100.031 0.0898438,99.4317C0.0898438,75.485 48.822,56.0723 108.936,56.0723C169.05,56.0723 217.783,75.485 217.783,99.4317C217.783,100.031 217.752,100.628 217.757,100.331Z"/>
      </clipPath>
      <circle id="teton_gauche" cx="50" cy="150" r="10px" fill="rgb(224,132,118)"  />
      <circle id="teton_droit" cx="160" cy="150" r="10px" fill="rgb(224,132,118)"  />
    </g>
  </g>
</svg>
