<svg  version="1.1" xmlns="http://www.w3.org/2000/svg" xmlns:xlink="http://www.w3.org/1999/xlink" >
  <g id="tete">
  <g id="bouche">
    <path d="M200.657,211.116C196.79,238.737 153.42,259.793 100.471,259.793C47.5224,259.793 4.15281,238.737 0.285351,211.116L200.657,211.116Z" style="fill:rgb(224,168,118);"/>
    <clipPath id="tag1">
      <path d="M200.657,211.116C196.79,238.737 153.42,259.793 100.471,259.793C47.5224,259.793 4.15281,238.737 0.285351,211.116L200.657,211.116Z"/>
    </clipPath>
    <g clip-path="url(#tag1)">
      <g id="Lèvre bas">
        <path d="M180.712,211.283C177.57,216.923 142.337,221.221 99.3224,221.221C56.3076,221.221 21.0749,216.923 17.933,211.283L180.712,211.283Z" style="fill:rgb(224,132,118);"/>
      </g>
    </g>
  </g>
  <g id="crane">
    <g id="Crane1">
      <path d="M200.783,109.406L200.783,211.41L0,211.41L0,101.495L0.308132,101.495C2.48946,44.9266 46.5306,0 100.542,0C154.554,0 198.595,44.9266 200.777,101.495L200.783,101.495L200.783,101.722C200.822,102.653 200.85,104.105 200.85,105.564C200.85,107.024 200.822,108.476 200.783,109.406Z" style="fill:rgb(224,168,118);"/>
    </g>
    <g id="Lèvre haut">
      <path d="M17.933,211.399C21.0637,205.78 56.1704,201.497 99.0313,201.497C141.892,201.497 176.999,205.78 180.13,211.399L17.933,211.399Z" style="fill:rgb(224,132,118);"/>
    </g>
    <path id="Nez" d="M106.668,106.611C106.668,106.611 106.011,130.565 116.952,155.798C127.892,181.031 133.152,182.51 104.252,180.406" style="fill:none;stroke-width:3.13px;stroke:rgb(206,128,71);"/>
    <g id="Yeux">
      <g id="Oeil gauche">
        <path d="M49.3443,68.1844C58.1334,68.1844 65.2584,83.5146 65.2584,102.425C65.2584,121.336 58.1334,136.666 49.3443,136.666C40.5552,136.666 33.4303,121.336 33.4303,102.425C33.4303,83.5146 40.5552,68.1844 49.3443,68.1844Z" style="fill:white;"/>
        <clipPath id="tag2">
          <path d="M49.3443,68.1844C58.1334,68.1844 65.2584,83.5146 65.2584,102.425C65.2584,121.336 58.1334,136.666 49.3443,136.666C40.5552,136.666 33.4303,121.336 33.4303,102.425C33.4303,83.5146 40.5552,68.1844 49.3443,68.1844Z"/>
        </clipPath>
        <g clip-path="url(#tag2)">
          <g id="Pupille">
            <path d="M49.2224,117.663C53.1732,117.663 56.3759,121.782 56.3759,126.863C56.3759,131.943 53.1732,136.062 49.2224,136.062C45.2717,136.062 42.069,131.943 42.069,126.863C42.069,121.782 45.2717,117.663 49.2224,117.663Z" style="fill:black;"/>
          </g>
        </g>
      </g>
      <g id="Oeil droit">
        <path d="M146.896,68.1844C155.685,68.1844 162.81,83.5146 162.81,102.425C162.81,121.336 155.685,136.666 146.896,136.666C138.106,136.666 130.982,121.336 130.982,102.425C130.982,83.5146 138.106,68.1844 146.896,68.1844Z" style="fill:white;"/>
        <clipPath id="tag3">
          <path d="M146.896,68.1844C155.685,68.1844 162.81,83.5146 162.81,102.425C162.81,121.336 155.685,136.666 146.896,136.666C138.106,136.666 130.982,121.336 130.982,102.425C130.982,83.5146 138.106,68.1844 146.896,68.1844Z"/>
        </clipPath>
        <g clip-path="url(#tag3)">
          <g id="Pupille1">
            <path d="M146.702,117.521C150.653,117.521 153.856,121.64 153.856,126.721C153.856,131.802 150.653,135.921 146.702,135.921C142.751,135.921 139.549,131.802 139.549,126.721C139.549,121.64 142.751,117.521 146.702,117.521Z" style="fill:black;"/>
          </g>
        </g>
      </g>
      <path id="Sourcil gauche" d="M27.359,71.0855C27.359,71.0855 41.3858,52.7946 59.9518,65.6153C82.634,81.2783 91.8815,69.7209 88.24,60.7974C80.0198,40.6541 55.1774,59.1761 80.851,65.0306" style="fill:none;stroke-width:3.13px;stroke:rgb(206,128,71);"/>
        <g id="Sourcil droit">
          <path d="M171.7,71.0855C171.7,71.0855 157.674,52.7946 139.108,65.6153C116.425,81.2783 107.178,69.7209 110.819,60.7974C119.04,40.6541 143.882,59.1761 118.208,65.0306" style="fill:none;stroke-width:3.13px;stroke:rgb(206,128,71);"/>
        </g>
      </g>
    </g>
  </g>
</svg>
