<?xml version="1.0" encoding="utf-8"?>
<!-- Generator: Adobe Illustrator 15.0.0, SVG Export Plug-In  -->
<!DOCTYPE svg PUBLIC "-//W3C//DTD SVG 1.1//EN" "http://www.w3.org/Graphics/SVG/1.1/DTD/svg11.dtd" [
	<!ENTITY ns_flows "http://ns.adobe.com/Flows/1.0/">
]>
<svg version="1.1"
	 xmlns="http://www.w3.org/2000/svg" xmlns:xlink="http://www.w3.org/1999/xlink" xmlns:a="http://ns.adobe.com/AdobeSVGViewerExtensions/3.0/"
	 x="0px" y="0px" width="1000px" height="1000px" viewBox="1 0 1000 1000" enable-background="new 1 0 1000 1000"
	 xml:space="preserve">
<defs>
</defs>
<rect x="0.5" y="0.5" fill="#99D8FF" stroke="#000000" stroke-miterlimit="10" width="1000" height="499"/>
<rect x="0.5" y="499.5" fill="#093B59" stroke="#000000" stroke-miterlimit="10" width="1000" height="501"/>
<ellipse fill="#FFF01F" stroke="#000000" stroke-miterlimit="10" cx="500.412" cy="69.998" rx="62.483" ry="62.429"/>
<g id="XMLID_2_">
	<g>
		<path fill="#FFF9A5" d="M538.161,862.147c-2.924,1.198-11.071,5.993-12.259,7.229c-0.112,0.112-0.188,0.225-0.287,0.338
			c-3.087,1.311-8.873,6.33-9.285,6.592c-1.3,0.861-3.499,3.896-3.975,4.308c-2.286,2.048-9.484,15.532-10.135,16.669
			c-1.412,2.459-2.399,5.368-3.086,8.44c-1.3,5.768-1.6,12.123-1.799,17.317c-0.3,7.167,1.262,14.384,4.099,20.976
			c0.388,1.748,5.687,11.075,6.823,12.387c0.95,1.498,1.949,2.983,3.062,4.42c0.725,0.936,18.183,15.582,24.156,17.28
			c0.975,0.374,1.925,0.761,2.774,1.273c0.013,0.124,0.024,0.249,0.037,0.374c-6.561,2.335-13.608,3.634-20.969,3.634
			c-34.516,0-62.496-27.943-62.496-62.429c0-34.474,27.98-62.429,62.496-62.429C524.64,858.526,531.638,859.825,538.161,862.147z"/>
	</g>
	<g>
		<path fill="none" stroke="#000000" stroke-miterlimit="10" d="M499.134,905.723c0.688-3.072,1.675-5.981,3.086-8.44
			c0.65-1.137,7.849-14.621,10.135-16.669c0.476-0.412,2.675-3.446,3.975-4.308c0.412-0.262,6.198-5.281,9.285-6.592
			c0.1-0.113,0.175-0.226,0.287-0.338c1.188-1.235,9.335-6.03,12.259-7.229c-6.523-2.322-13.521-3.621-20.844-3.621
			c-34.516,0-62.496,27.955-62.496,62.429c0,34.485,27.98,62.429,62.496,62.429c7.36,0,14.408-1.299,20.969-3.634
			c-0.013-0.125-0.024-0.25-0.037-0.374c-0.85-0.513-1.8-0.899-2.774-1.273c-5.974-1.698-23.432-16.345-24.156-17.28
			c-1.112-1.437-2.111-2.922-3.062-4.42c-1.137-1.312-6.436-10.639-6.823-12.387c-2.836-6.592-4.399-13.809-4.099-20.976
			C497.535,917.846,497.834,911.49,499.134,905.723z"/>
	</g>
</g>
<polygon fill="#FFF81F" stroke="#000000" stroke-miterlimit="10" points="781.574,773.547 765.382,782.917 763.929,801.556 
	750.004,789.065 731.813,793.442 739.4,776.353 729.61,760.421 748.223,762.347 760.365,748.121 764.28,766.404 "/>
<polygon fill="#FFF81F" stroke="#000000" stroke-miterlimit="10" points="180.504,665.543 154.382,657.622 133.041,674.631 
	132.51,647.359 109.725,632.337 135.519,623.405 142.777,597.112 159.25,618.861 186.521,617.634 170.909,640.008 "/>
<polygon fill="#FFF81F" stroke="#000000" stroke-miterlimit="10" points="331.717,752.314 296.666,748.795 273.893,775.648 
	266.412,741.255 233.812,727.915 264.239,710.176 266.865,675.076 293.151,698.509 327.374,690.158 313.192,722.376 "/>
<polygon fill="#FFF81F" stroke="#000000" stroke-miterlimit="10" points="663.202,905.185 654.729,909.399 653.34,918.748 
	646.784,912.013 637.481,913.643 641.904,905.268 637.547,896.926 646.836,898.484 653.443,891.698 654.762,901.037 "/>
<polygon fill="#FFF81F" stroke="#000000" stroke-miterlimit="10" points="782.194,903.391 765.296,900.089 752.991,912.125 
	750.913,895.046 735.653,887.073 751.267,879.82 754.143,862.856 765.871,875.453 782.907,872.941 774.54,887.979 "/>
<polygon fill="#FFF81F" stroke="#000000" stroke-miterlimit="10" points="919.03,779.957 886.925,771.16 861.47,792.599 
	859.924,759.372 831.65,741.812 862.799,730.072 870.779,697.779 891.579,723.752 924.783,721.356 906.49,749.146 "/>
<polygon fill="#FFF81F" stroke="#000000" stroke-miterlimit="10" points="352.323,870.349 324.701,882.936 319.419,912.807 
	298.901,890.447 268.835,894.659 283.778,868.255 270.479,840.985 300.23,847.025 322.075,825.961 325.522,856.098 "/>
<path fill="#EBF0EB" d="M125.371,156.492c7.706-6.556,8.18-21.71,13.376-30.408c5.63-9.424,16.067-15.072,25.729-19.494
	c15.029-6.876,31.11-4.207,46.878-0.644c9.825,2.222,20.416,4.72,26.323,13.27c9.349-2.824,18.318-10.844,27.605-14.726
	c19.85-8.297,42.161-14.453,55.422,6.398c9.186,14.442,16.174,32.397,18.749,49.328c1.107,7.283,0.41,10.242-4.746,15.123
	c-20.772,19.661-52.482,29.096-77.799,41.143c-12.111,5.763-23.428,9.399-36.794,10.919c-4.216,0.479-15.226,2.828-19.47,0.5
	c-3.884-2.131-8.152-11.06-10.279-14.762c-2.667-4.641-4.413-10.044-6.922-14.673c-5.547,17.096-17.274,51.003-40.929,46.619
	c-16.494-3.058-30.888-13.705-44.954-22.11c-9.125-5.452-21.103-11.927-26.434-21.629c-4.429-8.059-0.625-14.8,6.892-19.385
	c6.535-3.984,13.437-2.451,19.663,2.286c-3.86-8.666-11.246-15.723-14.219-24.642c7.881-5.784,17.499-17.308,28.055-12.152
	c3.347,1.633,14.208,13.659,16.459,5.758"/>
<path fill="none" d="M91.031,313.337c1.903-0.675,3.027-1.857,3.124-3.746"/>
<path fill="none" d="M49.167,296.481c8.333,2.423,14.327,10.839,23.119,13.11"/>
<path fill="#EBF0EB" d="M678.375,86.721c7.637-10.837,24.705-21.136,36.873-26.188c7.475-3.104,15.424-1.875,23.532-1.903
	c15.75-0.056,30.863,10.115,43.538,19.254c4.69,3.383,8.283,9.209,12.581,11.925c9.005-6.604,22.294-12.497,33.456-13.073
	c15.464-0.796,30.41,14.705,41.213,24.196c12.182,10.704,26.646,27.444,21.896,45.172c6.099,1.76,13.182-0.484,19.532,0.612
	c6.459,1.115,14.546,4.699,19.38,9.176c7.938,7.351,6.018,23.328,4.909,33.805c-1.091,10.322-9.127,31.673-20.82,33.739
	c-8.02,1.418-22.108-2.222-29.801-4.69c0.543,27.546-37.257,43.927-59.98,32.939c-13.429-6.493-5.695-18.697-11.413-28.713
	c-13.816,10.561-32.574,5.135-46.11-4.404c-9.408-6.631-6.67-21.61-6.983-31.972c-14.491,8.171-32.452,9.156-48.57,5.229
	c-10.073-2.454-22.797-4.732-25.917-15.557c-4.342-15.058-2.932-31.81,8.456-41.495c-10.112-4.436-45.814-10.4-35.312-29.983
	c1.976-3.686,7.618-6.526,11.297-8.097c6.386-2.729,8.041-2.487,8.868-9.974"/>
</svg>
